HIERARCHY
ROOT Hips
{
  OFFSET 53.568 95.7046 11.7611
  CHANNELS 6 Xposition Yposition Zposition Zrotation Xrotation Yrotation
  JOINT spine
  {
    OFFSET 0 7.96568 0.458067
    CHANNELS 3 Zrotation Xrotation Yrotation
    JOINT spine1
    {
      OFFSET 0 10.2431 0
      CHANNELS 3 Zrotation Xrotation Yrotation
      JOINT spine2
      {
        OFFSET 0 9.81475 0
        CHANNELS 3 Zrotation Xrotation Yrotation
        JOINT Neck
        {
          OFFSET 0 25.1986 1.20138
          CHANNELS 3 Zrotation Xrotation Yrotation
          JOINT Head
          {
            OFFSET 0 7.61315 0
            CHANNELS 3 Zrotation Xrotation Yrotation
            End Site
            {
              OFFSET 0 18.4281 -6.07733
            }
          }
        }
        JOINT RightShoulder
        {
          OFFSET -4.1327 10.5992 -0.575451
          CHANNELS 3 Zrotation Xrotation Yrotation
          JOINT RightArm
          {
            OFFSET 0 13.9018 0
            CHANNELS 3 Zrotation Xrotation Yrotation
            JOINT RightArmRoll
            {
              OFFSET 0 7.01789 0
              CHANNELS 3 Zrotation Xrotation Yrotation
              JOINT RightForeArm
              {
                OFFSET 0 20.4406 0
                CHANNELS 3 Zrotation Xrotation Yrotation
                JOINT RightForeArmRoll
                {
                  OFFSET 0 7.87516 0
                  CHANNELS 3 Zrotation Xrotation Yrotation
                  JOINT RightHand
                  {
                    OFFSET 0 15.8037 0
                    CHANNELS 3 Zrotation Xrotation Yrotation
                    End Site
                    {
                      OFFSET 0 0 0
                    }
                  }
                }
              }
            }
          }
        }
        JOINT LeftShoulder
        {
          OFFSET 4.1327 10.5992 -0.575451
          CHANNELS 3 Zrotation Xrotation Yrotation
          JOINT LeftArm
          {
            OFFSET 0 13.9018 0
            CHANNELS 3 Zrotation Xrotation Yrotation
            JOINT LeftArmRoll
            {
              OFFSET 0 7.01789 0
              CHANNELS 3 Zrotation Xrotation Yrotation
              JOINT LeftForeArm
              {
                OFFSET 0 20.4406 0
                CHANNELS 3 Zrotation Xrotation Yrotation
                JOINT LeftForeArmRoll
                {
                  OFFSET 0 7.87515 0
                  CHANNELS 3 Zrotation Xrotation Yrotation
                  JOINT LeftHand
                  {
                    OFFSET 0 15.8037 0
                    CHANNELS 3 Zrotation Xrotation Yrotation
                    End Site
                    {
                      OFFSET 0 0 0
                    }
                  }
                }
              }
            }
          }
        }
      }
    }
  }
  JOINT RightUpLeg
  {
    OFFSET -7.06048 -1.2947 -1.0861
    CHANNELS 3 Zrotation Xrotation Yrotation
    JOINT RightUpLegRoll
    {
      OFFSET 0 18.5308 0
      CHANNELS 3 Zrotation Xrotation Yrotation
      JOINT RightLeg
      {
        OFFSET 0 -22.9476 0
        CHANNELS 3 Zrotation Xrotation Yrotation
        JOINT RightLegRoll
        {
          OFFSET 0 23.0226 0
          CHANNELS 3 Zrotation Xrotation Yrotation
          JOINT RightFoot
          {
            OFFSET 0 19.1625 0
            CHANNELS 3 Zrotation Xrotation Yrotation
            JOINT RightToeBase
            {
              OFFSET 0 16.0188 0
              CHANNELS 3 Zrotation Xrotation Yrotation
              End Site
              {
                OFFSET 0.00678979 7.75782 -0.894206
              }
            }
          }
        }
      }
    }
  }
  JOINT LeftUpLeg
  {
    OFFSET 7.06048 -1.2947 -1.0861
    CHANNELS 3 Zrotation Xrotation Yrotation
    JOINT LeftUpLegRoll
    {
      OFFSET 0 18.5309 0
      CHANNELS 3 Zrotation Xrotation Yrotation
      JOINT LeftLeg
      {
        OFFSET 0 22.9475 0
        CHANNELS 3 Zrotation Xrotation Yrotation
        JOINT LeftLegRoll
        {
          OFFSET 0 23.2355 0
          CHANNELS 3 Zrotation Xrotation Yrotation
          JOINT LeftFoot
          {
            OFFSET 0 18.9496 0
            CHANNELS 3 Zrotation Xrotation Yrotation
            JOINT LeftToeBase
            {
              OFFSET 0 16.0188 0
              CHANNELS 3 Zrotation Xrotation Yrotation
              End Site
              {
                OFFSET -0.0304289 7.75782 -0.894207
              }
            }
          }
        }
      }
    }
  }
}
MOTION
Frames: 4
Frame Time: 0.00208333
53.0445 95.662 12.1519 -1.0137 -3.25286 0.86993 0.400177 -1.39586 0.200878 0.803044 1.20664 0.365344 0.799216 2.8516 0.352081 -0.406394 23.7654 1.01031 -1.02676 -1.65096 0.748395 70.5142 3.9784 0.518427 107.617 17.3147 19.9177 -2.38645e-006 5.24702e-006 1.97421e-007 2.91355 0.0272923 -0.0837027 -1.84859e-007 -1.36329e-006 -3.01211 8.0299 -4.95139 0.697635 -72.7416 0.332881 1.48407 -109.589 18.8663 -13.1406 1.25154e-007 3.5003e-006 -1.7625e-006 -5.14302 5.49914 0.0211342 6.49591e-006 7.05996e-006 3.00309 -8.0295 -4.95144 -0.697653 177.113 -5.71469 -2.98833 180 7.01512e-015 178.78 178.288 2.84023 179.583 1.1153e-006 2.67091e-006 0.0306959 -19.0205 68.1703 19.6692 8.14206 25.3184 -3.37198 -171.696 -1.5147 -1.07763 4.5067e-006 -1.99009e-005 -1.16525 -2.03446 -7.01943 0.161796 -8.91502e-007 -2.57141e-006 -0.0500157 18.6614 68.7801 -20.1875 -8.13649 25.2327 3.48774 
53.0451 95.676 12.148 -1.01474 -3.25172 0.870519 0.40008 -1.3962 0.200981 0.802851 1.20637 0.365137 0.799025 2.85133 0.351878 -0.40389 23.7663 1.01178 -1.01816 -1.64806 0.751781 70.5281 3.99776 0.525488 107.568 17.2703 19.9481 -2.38645e-006 5.24702e-006 1.97421e-007 2.92522 0.0271927 -0.0840128 -1.84859e-007 -1.36329e-006 -3.01204 8.0299 -4.95139 0.697635 -72.7369 0.331922 1.484 -109.593 18.8618 -13.1401 1.25154e-007 3.5003e-006 -1.7625e-006 -5.14258 5.50785 0.0219467 6.49591e-006 7.05996e-006 3.00309 -8.0295 -4.95144 -0.697653 177.114 -5.71183 -2.9834 180 7.01512e-015 178.78 178.279 2.83959 179.583 1.1153e-006 2.67091e-006 0.0306959 -19.0205 68.1703 19.6692 8.1416 25.3115 -3.38132 -171.696 -1.52031 -1.07814 4.5067e-006 -1.99009e-005 -1.16525 -2.03452 -7.007 0.161396 -8.91502e-007 -2.57141e-006 -0.0500157 18.6616 68.7762 -20.1839 -8.13649 25.2327 3.48774 
53.0377 95.6741 12.1455 -1.01578 -3.25055 0.871168 0.399991 -1.39651 0.2011 0.802672 1.20616 0.364945 0.798849 2.85113 0.351688 -0.401735 23.7669 1.0133 -1.00897 -1.64502 0.755163 70.5425 4.01771 0.532776 107.52 17.2249 19.9793 -2.38645e-006 5.24702e-006 1.97421e-007 2.93667 0.0270818 -0.0842504 -1.84859e-007 -1.36329e-006 -3.01198 8.0299 -4.95139 0.697635 -72.7321 0.330879 1.48396 -109.599 18.858 -13.1395 1.25154e-007 3.5003e-006 -1.7625e-006 -5.14129 5.51675 0.0226981 6.49591e-006 7.05996e-006 3.00309 -8.0295 -4.95144 -0.697653 177.114 -5.70881 -2.9781 180 7.01512e-015 178.78 178.27 2.83881 179.584 1.1153e-006 2.67091e-006 0.0306959 -19.0205 68.1703 19.6692 8.14111 25.304 -3.39143 -171.696 -1.52632 -1.0786 4.5067e-006 -1.99009e-005 -1.16525 -2.03453 -6.99363 0.16098 -8.91502e-007 -2.57141e-006 -0.0500157 18.6618 68.7721 -20.18 -8.13649 25.2327 3.48774 
53.0392 95.6674 12.1484 -1.01683 -3.24936 0.871859 0.399907 -1.39681 0.201229 0.802504 1.206 0.364762 0.798683 2.85096 0.351508 -0.399826 23.7674 1.01485 -0.999356 -1.64187 0.758543 70.557 4.03807 0.540223 107.471 17.1789 20.0109 -2.38645e-006 5.24702e-006 1.97421e-007 2.94797 0.0269631 -0.0844374 -1.84859e-007 -1.36329e-006 -3.01192 8.0299 -4.95139 0.697635 -72.7273 0.329776 1.48394 -109.605 18.8548 -13.139 1.25154e-007 3.5003e-006 -1.7625e-006 -5.13939 5.52581 0.0234067 6.49591e-006 7.05996e-006 3.00309 -8.0295 -4.95144 -0.697653 177.115 -5.70568 -2.97254 180 7.01512e-015 178.78 178.26 2.83795 179.584 1.1153e-006 2.67091e-006 0.0306959 -19.0205 68.1703 19.6692 8.14058 25.2961 -3.40208 -171.696 -1.53263 -1.07903 4.5067e-006 -1.99009e-005 -1.16525 -2.03449 -6.9796 0.160553 -8.91502e-007 -2.57141e-006 -0.0500157 18.6619 68.7677 -20.176 -8.13649 25.2327 3.48774 
